<svg width="100" height="100" viewBox="0 0 100 100" fill="none" xmlns="http://www.w3.org/2000/svg">
<path d="M9.375 57.9792H90.625M86.0417 57.9792C86.0417 38.075 69.9062 21.9375 50 21.9375C30.0937 21.9375 13.9583 38.075 13.9583 57.9792" stroke="#C93131" stroke-width="3" stroke-linecap="round" stroke-linejoin="round"/>
<path d="M34.9895 30.6916C31.2657 33.1209 28.1881 36.4187 26.0215 40.3011C23.8549 44.1836 22.6642 48.5344 22.552 52.9791M49.9999 21.9375V17.2291M51.9583 71.9791C62.7874 71.8479 64.1749 71.3958 84.1978 66.3125C85.4583 65.9937 86.3937 66.6395 86.6687 67.3729C86.9499 68.1229 86.8353 69.452 85.1249 69.8958C81.7499 70.7708 60.7083 80.4791 55.9166 80.4791C51.1249 80.4791 37.1666 79.4375 31.9166 79.4375C26.6666 79.4375 20.5416 82.7708 20.5416 82.7708C16.3333 78.8541 13.6666 72.3541 12.9583 65.3125H64.9583C67.1041 65.3125 67.7916 68.3125 65.9583 69.1458C63.2395 70.3812 58.6249 71.9791 51.9583 71.9791Z" stroke="#C93131" stroke-width="3" stroke-linecap="round" stroke-linejoin="round"/>
</svg>
