<svg width="35" height="35" viewBox="0 0 35 35" fill="none" xmlns="http://www.w3.org/2000/svg">
<path d="M16.7942 2.93417C9.05041 3.29875 2.94145 9.70083 2.96479 17.3965C2.96862 19.6617 3.51097 21.8935 4.54708 23.9079L3.00416 31.3469C2.98534 31.4399 2.99027 31.5361 3.0185 31.6267C3.04672 31.7173 3.09734 31.7993 3.16566 31.8652C3.23399 31.931 3.31781 31.9786 3.40939 32.0035C3.50096 32.0284 3.59733 32.0297 3.68958 32.0075L11.0308 30.2808C12.9752 31.2417 15.1097 31.7559 17.2783 31.7858C25.1927 31.9069 31.7902 25.6681 32.0367 17.815C32.3021 9.39313 25.3035 2.53021 16.7942 2.93271V2.93417ZM25.5544 25.3444C24.4963 26.3986 23.2406 27.2337 21.8593 27.8018C20.4779 28.3699 18.998 28.6597 17.5044 28.6548C15.7471 28.6602 14.0127 28.2568 12.4381 27.4765L11.4158 26.9704L6.91395 28.0292L7.86187 23.4631L7.35729 22.4831C6.53931 20.8975 6.11513 19.1383 6.12062 17.3542C6.12062 14.3354 7.30479 11.496 9.45437 9.3625C11.5969 7.24165 14.4896 6.05156 17.5044 6.05063C20.5465 6.05063 23.4048 7.22604 25.5544 9.36104C26.6134 10.4047 27.4538 11.6489 28.0265 13.0211C28.5992 14.3933 28.8926 15.8658 28.8896 17.3527C28.8896 20.3452 27.6865 23.2298 25.5544 25.3458V25.3444Z" fill="white"/>
<path d="M24.5612 20.4823L21.7452 19.6802C21.5635 19.6281 21.3711 19.6257 21.1881 19.6734C21.0052 19.7212 20.8385 19.8172 20.7054 19.9515L20.0171 20.6486C19.8746 20.7928 19.6928 20.8919 19.4944 20.9334C19.296 20.9749 19.0897 20.957 18.9014 20.8819C17.57 20.3467 14.7671 17.8733 14.051 16.6352C13.9506 16.4603 13.9048 16.2595 13.9193 16.0584C13.9339 15.8573 14.0082 15.6651 14.1327 15.5065L14.7335 14.7336C14.8492 14.5855 14.9224 14.4087 14.9452 14.2222C14.9681 14.0357 14.9398 13.8465 14.8633 13.6748L13.6791 11.0148C13.6122 10.8661 13.5116 10.735 13.3854 10.6318C13.2592 10.5285 13.1107 10.456 12.9517 10.4198C12.7927 10.3836 12.6275 10.3848 12.4691 10.4233C12.3106 10.4617 12.1632 10.5364 12.0385 10.6415C11.2525 11.3021 10.3191 12.304 10.2068 13.4167C10.0071 15.3752 10.8529 17.8442 14.0525 20.8104C17.7493 24.2361 20.7112 24.6896 22.6377 24.2244C23.7314 23.9619 24.6064 22.9075 25.1562 22.0456C25.2441 21.9087 25.2987 21.7531 25.3156 21.5913C25.3324 21.4295 25.311 21.2659 25.2531 21.1139C25.1953 20.9618 25.1025 20.8254 24.9823 20.7158C24.8622 20.6061 24.7179 20.5261 24.5612 20.4823Z" fill="white"/>
</svg>
