<svg width="100" height="100" viewBox="0 0 100 100" fill="none" xmlns="http://www.w3.org/2000/svg">
<path d="M28.0418 79.2501L33.6543 65.3042C34.0126 64.507 34.5529 63.8542 35.2751 63.3459C35.9946 62.8348 36.7946 62.5792 37.6751 62.5792H47.9168V42.5251C38.414 42.3389 30.4418 41.1501 24.0001 38.9584C17.5585 36.7667 14.3404 34.1973 14.346 31.2501C14.346 28.0778 17.7946 25.4014 24.6918 23.2209C31.5862 21.0431 40.0223 19.9542 50.0001 19.9542C59.9946 19.9542 68.4362 21.0431 75.3251 23.2209C82.214 25.4014 85.6585 28.0778 85.6585 31.2501C85.6585 34.2501 82.4251 36.8334 75.9585 39.0001C69.4918 41.1639 61.5335 42.3389 52.0835 42.5251V62.5792H62.3251C63.189 62.5792 63.9862 62.8348 64.7168 63.3459C65.4473 63.857 65.9904 64.5098 66.346 65.3042L71.9543 79.2459H67.6293L62.6293 66.7459H37.371L32.371 79.2459L28.0418 79.2501ZM50.0001 38.3792C57.4835 38.3792 64.2251 37.6806 70.2251 36.2834C76.2251 34.8917 79.8918 33.2126 81.2251 31.2459C79.8918 29.2792 76.2251 27.5987 70.2251 26.2042C64.2251 24.8098 57.4835 24.1139 50.0001 24.1167C42.5168 24.1195 35.7751 24.8167 29.7751 26.2084C23.7751 27.6001 20.1085 29.2806 18.7751 31.2501C20.1085 33.2167 23.7751 34.8973 29.7751 36.2917C35.7751 37.6834 42.5168 38.3792 50.0001 38.3792Z" fill="#1043C6"/>
</svg>
