<svg width="100" height="100" viewBox="0 0 100 100" fill="none" xmlns="http://www.w3.org/2000/svg">
<path d="M68.1873 17.1875H86.9373C85.0598 35.1317 76.5982 51.7432 63.1873 63.8125C49.6684 75.9611 32.1127 82.6447 13.9373 82.5625H9.1248V65L24.9998 59.5L30.2498 68.375L33.9373 75L40.6248 71.125C52.5985 64.1749 62.8021 54.5489 70.4373 43L74.9998 35.8125L67.3748 31.8125L61.1248 28.5625L67.9373 17.1875M67.9373 9.375C66.5895 9.38508 65.2669 9.74091 64.096 10.4084C62.9251 11.076 61.9451 12.0328 61.2498 13.1875L54.6873 24.5625C54.1307 25.4717 53.7675 26.4859 53.6207 27.5417C53.4738 28.5976 53.5464 29.6724 53.8338 30.699C54.1213 31.7255 54.6174 32.6817 55.2912 33.5078C55.965 34.3339 56.802 35.0121 57.7498 35.5L63.9998 38.75C57.0225 49.2859 47.6942 58.0578 36.7498 64.375L31.2498 55.5625C30.6061 54.4532 29.6993 53.5195 28.6092 52.8436C27.5192 52.1678 26.2796 51.7708 24.9998 51.6875C24.1269 51.6856 23.2601 51.8336 22.4373 52.125L6.2498 57.625C4.77576 58.2082 3.51401 59.226 2.63211 60.5433C1.75021 61.8606 1.2899 63.4149 1.3123 65V82.8125C1.3123 84.8845 2.1354 86.8716 3.60053 88.3368C5.06566 89.8019 7.0528 90.625 9.1248 90.625H13.8123C33.8715 90.6303 53.2237 83.2152 68.1434 69.8071C83.063 56.3991 92.4954 37.9459 94.6248 18C94.7291 16.9098 94.6049 15.8099 94.2601 14.7704C93.9152 13.731 93.3574 12.7749 92.6222 11.9632C91.887 11.1515 90.9905 10.5021 89.9902 10.0565C88.9898 9.61081 87.9075 9.37871 86.8123 9.375H67.9373Z" fill="#150B48"/>
</svg>
