<svg width="100" height="100" viewBox="0 0 100 100" fill="none" xmlns="http://www.w3.org/2000/svg">
<path d="M92.9688 43.75C92.9626 38.1575 90.7383 32.7958 86.7838 28.8413C82.8293 24.8868 77.4676 22.6625 71.8751 22.6563C71.0238 22.6575 70.1733 22.7096 69.3282 22.8125C67.6873 19.0489 64.9838 15.846 61.5491 13.5966C58.1145 11.3471 54.098 10.1489 49.9923 10.1489C45.8865 10.1489 41.8701 11.3471 38.4354 13.5966C35.0007 15.846 32.2972 19.0489 30.6563 22.8125C29.8164 22.7103 28.9712 22.6581 28.1251 22.6563C23.296 22.6593 18.6143 24.3192 14.8618 27.3587C11.1093 30.3981 8.51329 34.6331 7.5074 39.3562C6.50151 44.0793 7.14665 49.0045 9.33505 53.3092C11.5234 57.6139 15.1226 61.0374 19.5313 63.0078V81.25C19.5313 82.7004 20.1075 84.0914 21.1331 85.117C22.1587 86.1426 23.5497 86.7188 25.0001 86.7188H75.0001C76.4505 86.7188 77.8415 86.1426 78.8671 85.117C79.8926 84.0914 80.4688 82.7004 80.4688 81.25V63.0078C84.1876 61.3451 87.3461 58.6425 89.564 55.2257C91.7818 51.8088 92.9642 47.8235 92.9688 43.75ZM75.7813 81.25C75.7813 81.4572 75.699 81.6559 75.5525 81.8024C75.406 81.9489 75.2073 82.0312 75.0001 82.0312H25.0001C24.7929 82.0312 24.5942 81.9489 24.4476 81.8024C24.3011 81.6559 24.2188 81.4572 24.2188 81.25V64.4766C25.5067 64.7201 26.8144 64.843 28.1251 64.8438H71.8751C73.1857 64.843 74.4935 64.7201 75.7813 64.4766V81.25ZM71.8751 60.1562H65.504L67.8985 50.5703C67.9734 50.2718 67.9888 49.9614 67.9437 49.6569C67.8986 49.3524 67.7941 49.0598 67.6359 48.7957C67.4778 48.5316 67.2691 48.3013 67.022 48.1179C66.7748 47.9344 66.4939 47.8015 66.1954 47.7266C65.8968 47.6517 65.5864 47.6363 65.282 47.6814C64.9775 47.7264 64.6848 47.831 64.4208 47.9892C64.1567 48.1473 63.9264 48.3559 63.7429 48.6031C63.5595 48.8503 63.4265 49.1311 63.3516 49.4297L60.668 60.1562H52.3438V50C52.3438 49.3784 52.0969 48.7823 51.6574 48.3427C51.2178 47.9032 50.6217 47.6563 50.0001 47.6563C49.3785 47.6563 48.7823 47.9032 48.3428 48.3427C47.9033 48.7823 47.6563 49.3784 47.6563 50V60.1562H39.3321L36.6485 49.4297C36.5736 49.1311 36.4406 48.8503 36.2572 48.6031C36.0738 48.3559 35.8434 48.1473 35.5794 47.9892C35.3153 47.831 35.0227 47.7264 34.7182 47.6814C34.4137 47.6363 34.1033 47.6517 33.8048 47.7266C33.5062 47.8015 33.2253 47.9344 32.9782 48.1179C32.731 48.3013 32.5224 48.5316 32.3642 48.7957C32.2061 49.0598 32.1015 49.3524 32.0564 49.6569C32.0114 49.9614 32.0267 50.2718 32.1016 50.5703L34.4962 60.1562H28.1251C23.7739 60.1562 19.6009 58.4277 16.5241 55.351C13.4473 52.2742 11.7188 48.1012 11.7188 43.75C11.7188 39.3988 13.4473 35.2258 16.5241 32.149C19.6009 29.0723 23.7739 27.3438 28.1251 27.3438C28.5157 27.3438 28.9063 27.3438 29.2657 27.3867C29.0288 28.6609 28.9086 29.954 28.9063 31.25C28.9063 31.8716 29.1533 32.4677 29.5928 32.9073C30.0323 33.3468 30.6285 33.5938 31.2501 33.5938C31.8717 33.5938 32.4678 33.3468 32.9074 32.9073C33.3469 32.4677 33.5938 31.8716 33.5938 31.25C33.5938 26.8988 35.3223 22.7258 38.3991 19.649C41.4759 16.5723 45.6489 14.8438 50.0001 14.8438C54.3513 14.8438 58.5243 16.5723 61.601 19.649C64.6778 22.7258 66.4063 26.8988 66.4063 31.25C66.4063 31.8716 66.6532 32.4677 67.0928 32.9073C67.5323 33.3468 68.1285 33.5938 68.7501 33.5938C69.3717 33.5938 69.9678 33.3468 70.4074 32.9073C70.8469 32.4677 71.0938 31.8716 71.0938 31.25C71.0916 29.954 70.9713 28.6609 70.7344 27.3867C71.1251 27.3633 71.4923 27.3438 71.8751 27.3438C76.2263 27.3438 80.3993 29.0723 83.476 32.149C86.5528 35.2258 88.2813 39.3988 88.2813 43.75C88.2813 48.1012 86.5528 52.2742 83.476 55.351C80.3993 58.4277 76.2263 60.1562 71.8751 60.1562Z" fill="#11A857"/>
</svg>
